<svg width="40" height="40" viewBox="0 0 40 40" fill="none" xmlns="http://www.w3.org/2000/svg">
<path d="M15.8676 3.76862C14.2155 3.76855 12.5796 4.09392 11.0532 4.72613C9.52684 5.35835 8.13994 6.28503 6.97172 7.45326C5.8035 8.6215 4.87682 10.0084 4.24461 11.5348C3.6124 13.0612 3.28704 14.6971 3.2871 16.3493C3.2871 16.56 3.29235 16.7697 3.30283 16.9783H3.2871L3.40033 18.4487L0.770996 23.2686L3.80448 23.7019L4.06159 27.0428H10.2064V30.188H4.30298L4.54516 33.3331H9.57737L10.2064 38.3654H24.674L23.5764 26.2911C25.6493 24.6837 27.1679 22.4685 27.9198 19.9554C28.6717 17.4424 28.6193 14.7571 27.7699 12.2753C26.9204 9.7935 25.3165 7.63929 23.1824 6.11401C21.0483 4.58874 18.4908 3.76871 15.8676 3.76862ZM23.8862 14.4622H25.9321V16.9783H23.8862C23.7687 17.434 23.5874 17.8708 23.3476 18.2757L24.7951 19.7232L23.0157 21.5026L21.5682 20.055C21.1633 20.2948 20.7265 20.4762 20.2708 20.5937V22.6396H17.7547V20.5937C17.299 20.4762 16.8623 20.2948 16.4574 20.055L15.0098 21.5026L13.2304 19.7232L14.678 18.2757C14.4382 17.8708 14.2569 17.434 14.1394 16.9783H12.0935V14.4622H14.1394C14.2569 14.0065 14.4382 13.5697 14.678 13.1648L13.2304 11.7172L15.0098 9.93785L16.4574 11.3854C16.8623 11.1456 17.299 10.9643 17.7547 10.8468V8.80087H20.2708V10.8468C20.7265 10.9643 21.1633 11.1456 21.5682 11.3854L23.0157 9.93785L24.7951 11.7172L23.3476 13.1648C23.5874 13.5697 23.7687 14.0065 23.8862 14.4622Z" fill="#FFCF26"/>
<path d="M10.1865 14.4818H5.78332C5.6165 14.4818 5.4565 14.548 5.33853 14.666C5.22057 14.784 5.1543 14.944 5.1543 15.1108V18.256C5.1543 18.4228 5.22057 18.5828 5.33853 18.7007C5.4565 18.8187 5.6165 18.885 5.78332 18.885H8.92846C9.05418 18.885 9.17702 18.8473 9.28112 18.7768C9.38522 18.7064 9.46582 18.6063 9.51251 18.4896L10.7706 15.3444C10.8087 15.249 10.8229 15.1456 10.8119 15.0434C10.8009 14.9412 10.765 14.8432 10.7074 14.7581C10.6498 14.673 10.5721 14.6033 10.4813 14.5551C10.3905 14.5069 10.2893 14.4818 10.1865 14.4818ZM8.50261 17.6269H6.41235V15.7398H9.25744L8.50261 17.6269ZM21.509 13.2237C21.3422 13.2237 21.1822 13.29 21.0642 13.4079C20.9462 13.5259 20.88 13.6859 20.88 13.8527V17.6269C20.88 17.7937 20.9462 17.9537 21.0642 18.0717C21.1822 18.1897 21.3422 18.256 21.509 18.256C21.6758 18.256 21.8358 18.1897 21.9538 18.0717C22.0718 17.9537 22.138 17.7937 22.138 17.6269V13.8527C22.138 13.6859 22.0718 13.5259 21.9538 13.4079C21.8358 13.29 21.6758 13.2237 21.509 13.2237Z" fill="#FE9526"/>
<path d="M25.9124 13.8528H24.332C24.2654 13.6644 24.1885 13.4799 24.1016 13.3L25.2205 12.1811C25.3384 12.0632 25.4046 11.9032 25.4046 11.7365C25.4046 11.5697 25.3384 11.4098 25.2205 11.2918L23.4412 9.51244C23.3232 9.39456 23.1633 9.32834 22.9965 9.32834C22.8298 9.32834 22.6698 9.39456 22.5519 9.51244L21.433 10.6313C21.2531 10.5445 21.0686 10.4676 20.8802 10.4009V8.8205C20.8802 8.65367 20.814 8.49367 20.696 8.37571C20.578 8.25774 20.418 8.19147 20.2512 8.19147H17.7351C17.5683 8.19147 17.4083 8.25774 17.2903 8.37571C17.1723 8.49367 17.1061 8.65367 17.1061 8.8205V10.4009C16.9177 10.4676 16.7332 10.5445 16.5533 10.6313L15.4344 9.51244C15.3165 9.39456 15.1565 9.32834 14.9898 9.32834C14.823 9.32834 14.6631 9.39456 14.5451 9.51244L12.7658 11.2918C12.6479 11.4098 12.5817 11.5697 12.5817 11.7365C12.5817 11.9032 12.6479 12.0632 12.7658 12.1811L13.8847 13.3C13.7978 13.4799 13.7209 13.6644 13.6543 13.8528H12.0739C11.907 13.8528 11.747 13.919 11.6291 14.037C11.5111 14.155 11.4448 14.315 11.4448 14.4818V16.9979C11.4448 17.1648 11.5111 17.3247 11.6291 17.4427C11.747 17.5607 11.907 17.627 12.0739 17.627H13.6543C13.7213 17.8151 13.7982 17.9997 13.8847 18.1797L12.7658 19.2986C12.6479 19.4166 12.5817 19.5765 12.5817 19.7433C12.5817 19.91 12.6479 20.0699 12.7658 20.1879L14.5451 21.9673C14.6631 22.0852 14.823 22.1514 14.9898 22.1514C15.1565 22.1514 15.3165 22.0852 15.4344 21.9673L16.5533 20.8484C16.7334 20.9349 16.9179 21.0118 17.1061 21.0788V22.6592C17.1061 22.826 17.1723 22.986 17.2903 23.104C17.4083 23.222 17.5683 23.2882 17.7351 23.2882H20.2512C20.418 23.2882 20.578 23.222 20.696 23.104C20.814 22.986 20.8802 22.826 20.8802 22.6592V21.0788C21.0684 21.0118 21.2529 20.9349 21.433 20.8484L22.5519 21.9673C22.6698 22.0852 22.8298 22.1514 22.9965 22.1514C23.1633 22.1514 23.3232 22.0852 23.4412 21.9673L25.2205 20.1879C25.3384 20.0699 25.4046 19.91 25.4046 19.7433C25.4046 19.5765 25.3384 19.4166 25.2205 19.2986L24.1016 18.1797C24.1881 17.9997 24.265 17.8151 24.332 17.627H25.9124C26.0793 17.627 26.2393 17.5607 26.3572 17.4427C26.4752 17.3247 26.5415 17.1648 26.5415 16.9979V14.4818C26.5415 14.315 26.4752 14.155 26.3572 14.037C26.2393 13.919 26.0793 13.8528 25.9124 13.8528ZM25.2834 16.3689H23.8665C23.727 16.3689 23.5915 16.4154 23.4813 16.5009C23.3711 16.5865 23.2925 16.7063 23.2579 16.8414C23.1545 17.2396 22.9957 17.6213 22.7862 17.9753C22.7151 18.0955 22.686 18.2359 22.7036 18.3744C22.7211 18.5129 22.7842 18.6416 22.8829 18.7403L23.8862 19.7429L22.9961 20.6329L21.9936 19.6296C21.8949 19.5309 21.7661 19.4678 21.6276 19.4503C21.4891 19.4328 21.3487 19.4619 21.2286 19.5329C20.8746 19.7425 20.4929 19.9013 20.0947 20.0047C19.9596 20.0393 19.8398 20.1178 19.7542 20.228C19.6686 20.3382 19.6222 20.4738 19.6222 20.6133V22.0302H18.3641V20.6133C18.3641 20.4738 18.3177 20.3382 18.2321 20.228C18.1465 20.1178 18.0267 20.0393 17.8916 20.0047C17.4934 19.9013 17.1117 19.7425 16.7577 19.5329C16.6376 19.4619 16.4972 19.4328 16.3587 19.4503C16.2201 19.4678 16.0914 19.5309 15.9927 19.6296L14.9902 20.6329L14.1001 19.7429L15.1034 18.7403C15.2021 18.6416 15.2652 18.5129 15.2827 18.3744C15.3003 18.2359 15.2712 18.0955 15.2001 17.9753C14.9906 17.6213 14.8317 17.2396 14.7283 16.8414C14.6938 16.7063 14.6152 16.5865 14.505 16.5009C14.3948 16.4154 14.2593 16.3689 14.1198 16.3689H12.7029V15.1108H14.1198C14.2593 15.1108 14.3948 15.0644 14.505 14.9788C14.6152 14.8932 14.6938 14.7734 14.7283 14.6383C14.8317 14.2401 14.9906 13.8584 15.2001 13.5044C15.2712 13.3843 15.3003 13.2439 15.2827 13.1053C15.2652 12.9668 15.2021 12.8381 15.1034 12.7394L14.1001 11.7369L14.9902 10.8468L15.9927 11.8501C16.0914 11.9488 16.2201 12.0119 16.3587 12.0294C16.4972 12.0469 16.6376 12.0179 16.7577 11.9468C17.1117 11.7372 17.4934 11.5784 17.8916 11.475C18.0267 11.4404 18.1465 11.3619 18.2321 11.2517C18.3177 11.1415 18.3641 11.0059 18.3641 10.8664V9.44953H19.6222V10.8664C19.6222 11.0059 19.6686 11.1415 19.7542 11.2517C19.8398 11.3619 19.9596 11.4404 20.0947 11.475C20.4929 11.5784 20.8746 11.7372 21.2286 11.9468C21.3487 12.0179 21.4891 12.0469 21.6276 12.0294C21.7661 12.0119 21.8949 11.9488 21.9936 11.8501L22.9961 10.8468L23.8862 11.7369L22.8829 12.7394C22.7842 12.8381 22.7211 12.9668 22.7036 13.1053C22.686 13.2439 22.7151 13.3843 22.7862 13.5044C22.9957 13.8584 23.1545 14.2401 23.2579 14.6383C23.2925 14.7734 23.3711 14.8932 23.4813 14.9788C23.5915 15.0644 23.727 15.1108 23.8665 15.1108H25.2834V16.3689Z" fill="#FE9526"/>
<path d="M35.4563 16.3689C35.6047 16.7886 35.8967 17.1423 36.2806 17.3676C36.6646 17.5928 37.1158 17.675 37.5546 17.5998C37.9933 17.5245 38.3913 17.2965 38.6783 16.9562C38.9652 16.6158 39.1226 16.185 39.1226 15.7398C39.1226 15.2947 38.9652 14.8639 38.6783 14.5235C38.3913 14.1832 37.9933 13.9552 37.5546 13.8799C37.1158 13.8047 36.6646 13.8869 36.2806 14.1121C35.8967 14.3374 35.6047 14.6911 35.4563 15.1108H28.997C28.8071 13.1026 28.1565 11.1653 27.0958 9.44953H32.2027C32.3695 9.44953 32.5295 9.38325 32.6475 9.26529C32.7654 9.14732 32.8317 8.98732 32.8317 8.82049V2.53017H35.4563C35.6047 2.94987 35.8967 3.3036 36.2806 3.52884C36.6646 3.75409 37.1158 3.83634 37.5546 3.76106C37.9933 3.68578 38.3913 3.45782 38.6783 3.11747C38.9652 2.77712 39.1226 2.3463 39.1226 1.90114C39.1226 1.45598 38.9652 1.02515 38.6783 0.684804C38.3913 0.344454 37.9933 0.116496 37.5546 0.0412189C37.1158 -0.0340582 36.6646 0.048193 36.2806 0.273435C35.8967 0.498677 35.6047 0.852408 35.4563 1.27211H32.2027C32.0359 1.27211 31.8759 1.33838 31.7579 1.45635C31.6399 1.57431 31.5737 1.73431 31.5737 1.90114V8.19146H26.2151C24.9804 6.623 23.4058 5.35518 21.6101 4.4835C19.8143 3.61183 17.8441 3.15903 15.848 3.1592C8.56384 3.1592 2.63841 9.08469 2.63841 16.3689C2.63841 16.5371 2.64156 16.7101 2.64863 16.8855C2.63906 16.9384 2.63615 16.9923 2.63998 17.0459L2.73906 18.3307L0.199359 22.9871C0.150731 23.0762 0.124413 23.1759 0.122653 23.2774C0.120893 23.3789 0.143745 23.4794 0.189254 23.5702C0.234764 23.661 0.301578 23.7394 0.383987 23.7987C0.466396 23.8581 0.561949 23.8966 0.66248 23.911L3.19667 24.2727L3.89804 33.4007C3.91013 33.5588 3.98149 33.7065 4.09783 33.8143C4.21418 33.922 4.36692 33.9819 4.52549 33.9818H9.00259L9.56243 38.4629C9.5814 38.615 9.65533 38.7551 9.7703 38.8566C9.88527 38.9581 10.0334 39.0141 10.1867 39.014H24.6544C24.7417 39.014 24.8281 38.9958 24.9081 38.9605C24.988 38.9252 25.0597 38.8737 25.1187 38.8092C25.1776 38.7447 25.2225 38.6687 25.2505 38.5859C25.2784 38.5031 25.2888 38.4154 25.281 38.3284L24.214 26.5914C25.3574 25.6585 26.3367 24.541 27.1115 23.2851C27.1311 23.2873 27.1508 23.2884 27.1705 23.2882H31.5737V29.5786C31.5737 29.7454 31.6399 29.9054 31.7579 30.0234C31.8759 30.1413 32.0359 30.2076 32.2027 30.2076H35.4563C35.6047 30.6273 35.8967 30.981 36.2806 31.2063C36.6646 31.4315 37.1158 31.5138 37.5546 31.4385C37.9933 31.3632 38.3913 31.1352 38.6783 30.7949C38.9652 30.4545 39.1226 30.0237 39.1226 29.5786C39.1226 29.1334 38.9652 28.7026 38.6783 28.3622C38.3913 28.0219 37.9933 27.7939 37.5546 27.7186C37.1158 27.6434 36.6646 27.7256 36.2806 27.9509C35.8967 28.1761 35.6047 28.5298 35.4563 28.9495H32.8317V22.6592C32.8317 22.4924 32.7654 22.3324 32.6475 22.2144C32.5295 22.0964 32.3695 22.0302 32.2027 22.0302H27.7932C28.6295 20.2603 29.0614 18.3264 29.0575 16.3689H35.4563ZM37.2349 15.1108C37.3593 15.1108 37.4809 15.1477 37.5844 15.2168C37.6878 15.2859 37.7684 15.3842 37.816 15.4991C37.8637 15.6141 37.8761 15.7405 37.8518 15.8626C37.8276 15.9846 37.7677 16.0967 37.6797 16.1846C37.5917 16.2726 37.4796 16.3325 37.3576 16.3568C37.2356 16.3811 37.1091 16.3686 36.9942 16.321C36.8792 16.2734 36.781 16.1928 36.7119 16.0893C36.6428 15.9859 36.6059 15.8643 36.6059 15.7398C36.6061 15.5731 36.6724 15.4132 36.7904 15.2953C36.9083 15.1774 37.0681 15.111 37.2349 15.1108ZM37.2349 1.27211C37.3593 1.27211 37.4809 1.309 37.5844 1.37812C37.6878 1.44724 37.7684 1.54548 37.816 1.66042C37.8637 1.77536 37.8761 1.90184 37.8518 2.02386C37.8276 2.14588 37.7677 2.25796 37.6797 2.34593C37.5917 2.4339 37.4796 2.49381 37.3576 2.51808C37.2356 2.54236 37.1091 2.5299 36.9942 2.48229C36.8792 2.43468 36.781 2.35405 36.7119 2.25061C36.6428 2.14717 36.6059 2.02555 36.6059 1.90114C36.6061 1.73438 36.6724 1.57452 36.7904 1.4566C36.9083 1.33868 37.0681 1.27234 37.2349 1.27211ZM37.2349 28.9495C37.3593 28.9495 37.4809 28.9864 37.5844 29.0555C37.6878 29.1247 37.7684 29.2229 37.816 29.3378C37.8637 29.4528 37.8761 29.5793 37.8518 29.7013C37.8276 29.8233 37.7677 29.9354 37.6797 30.0234C37.5917 30.1113 37.4796 30.1712 37.3576 30.1955C37.2356 30.2198 37.1091 30.2073 36.9942 30.1597C36.8792 30.1121 36.781 30.0315 36.7119 29.928C36.6428 29.8246 36.6059 29.703 36.6059 29.5786C36.6061 29.4118 36.6724 29.2519 36.7904 29.134C36.9083 29.0161 37.0681 28.9498 37.2349 28.9495ZM4.72128 27.6915H9.55771V29.5786H4.86595L4.72128 27.6915ZM23.1706 25.8138C23.0875 25.8786 23.0219 25.9632 22.9798 26.0599C22.9378 26.1566 22.9207 26.2623 22.93 26.3674L22.9937 27.0624H17.3663L13.1479 22.8432C13.0298 22.7253 12.8697 22.6591 12.7028 22.6592H8.92868C8.76185 22.6592 8.60186 22.7255 8.48389 22.8434C8.36593 22.9614 8.29965 23.1214 8.29965 23.2882C8.29965 23.4551 8.36593 23.6151 8.48389 23.733C8.60186 23.851 8.76185 23.9173 8.92868 23.9173H12.4426L16.661 28.1365C16.7791 28.2544 16.9392 28.3206 17.106 28.3205H23.1077L23.2791 30.2076H19.6221C19.4553 30.2076 19.2953 30.2739 19.1773 30.3918C19.0594 30.5098 18.9931 30.6698 18.9931 30.8366C18.9931 31.0035 19.0594 31.1635 19.1773 31.2814C19.2953 31.3994 19.4553 31.4657 19.6221 31.4657H23.3939L23.9656 37.756H10.7418L10.182 33.2749C10.163 33.1227 10.0891 32.9827 9.97414 32.8812C9.85917 32.7797 9.71107 32.7237 9.55771 32.7237H5.10813L4.96267 30.8366H10.1867C10.3536 30.8366 10.5136 30.7704 10.6315 30.6524C10.7495 30.5344 10.8158 30.3744 10.8158 30.2076V27.0624C10.8158 26.8956 10.7495 26.7356 10.6315 26.6176C10.5136 26.4997 10.3536 26.4334 10.1867 26.4334H4.62456L4.41227 23.6735C4.40117 23.5308 4.34178 23.3961 4.24388 23.2916C4.14597 23.1871 4.01539 23.1191 3.87366 23.0987L1.73733 22.7937L3.93263 18.7694C3.99103 18.6628 4.01725 18.5415 4.00812 18.4203L3.90511 17.0899C3.91154 17.0494 3.91365 17.0082 3.9114 16.9672C3.90118 16.7644 3.89647 16.5631 3.89647 16.3689C3.89647 9.77898 9.25813 4.41727 15.848 4.41727C15.9691 4.41727 16.0902 4.41963 16.2105 4.42356L11.1845 9.44953H8.29965C8.13283 9.44953 7.97283 9.5158 7.85487 9.63377C7.7369 9.75173 7.67063 9.91173 7.67063 10.0786C7.67063 10.2454 7.7369 10.4054 7.85487 10.5234C7.97283 10.6413 8.13283 10.7076 8.29965 10.7076H11.4448C11.6117 10.7077 11.7717 10.6415 11.8898 10.5236L17.8302 4.58239C23.4804 5.52987 27.7995 10.4536 27.7995 16.3689C27.8048 18.1929 27.39 19.9936 26.5872 21.6315C25.7845 23.2694 24.6155 24.7005 23.1706 25.8138Z" fill="#FE9526"/>
<path d="M18.9933 13.2237H16.4772C16.3103 13.2237 16.1503 13.29 16.0324 13.4079C15.9144 13.5259 15.8481 13.6859 15.8481 13.8527V17.6269C15.8481 17.7937 15.9144 17.9537 16.0324 18.0717C16.1503 18.1897 16.3103 18.256 16.4772 18.256C16.644 18.256 16.804 18.1897 16.922 18.0717C17.0399 17.9537 17.1062 17.7937 17.1062 17.6269V16.3689H18.3643V17.6269C18.3643 17.7937 18.4305 17.9537 18.5485 18.0717C18.6665 18.1897 18.8265 18.256 18.9933 18.256C19.1601 18.256 19.3201 18.1897 19.4381 18.0717C19.556 17.9537 19.6223 17.7937 19.6223 17.6269V13.8527C19.6223 13.6859 19.556 13.5259 19.4381 13.4079C19.3201 13.29 19.1601 13.2237 18.9933 13.2237ZM18.3643 15.1108H17.1062V14.4818H18.3643V15.1108Z" fill="#FE9526"/>
</svg>
