<svg width="31" height="30" viewBox="0 0 31 30" fill="none" xmlns="http://www.w3.org/2000/svg">
<path fill-rule="evenodd" clip-rule="evenodd" d="M10.3901 5.05019C10.3901 4.381 10.9039 3.83789 11.5385 3.83789H19.1949C19.8294 3.83789 20.3432 4.381 20.3432 5.05019C20.3432 5.71938 19.8294 6.26249 19.1949 6.26249H11.5385C10.9039 6.26249 10.3901 5.71938 10.3901 5.05019ZM12.6022 25.6593H18.1311C22.0141 25.6593 23.9562 25.6593 25.3509 24.784C25.9509 24.4081 26.4692 23.9208 26.8762 23.3499C27.808 22.0406 27.808 20.2161 27.808 16.567C27.808 12.918 27.808 11.0947 26.8749 9.78423C26.4684 9.21337 25.9505 8.72606 25.3509 8.35007C23.9562 7.47479 22.0141 7.47479 18.1311 7.47479H12.6022C8.71924 7.47479 6.77714 7.47479 5.38246 8.35007C4.78282 8.72609 4.26496 9.21339 3.8584 9.78423C2.92529 11.0935 2.92529 12.918 2.92529 16.5646V16.567C2.92529 20.2161 2.92529 22.0394 3.85715 23.3499C4.26025 23.9172 4.77781 24.4046 5.38246 24.784C6.77714 25.6593 8.71924 25.6593 12.6022 25.6593ZM10.1823 16.567C10.1823 13.8757 12.5039 11.696 15.3667 11.696C18.2294 11.696 20.551 13.877 20.551 16.567C20.551 19.2571 18.2282 21.4381 15.3667 21.4381C12.5039 21.4381 10.1823 19.2559 10.1823 16.567ZM12.2563 16.567C12.2563 14.9523 13.6497 13.6454 15.3667 13.6454C17.0836 13.6454 18.477 14.9535 18.477 16.567C18.477 18.1806 17.0836 19.4887 15.3667 19.4887C13.6497 19.4887 12.2563 18.1806 12.2563 16.567ZM22.9696 11.696C22.3973 11.696 21.9332 12.1325 21.9332 12.6707C21.9332 13.2078 22.3973 13.6442 22.9696 13.6442H23.6613C24.2336 13.6442 24.6977 13.2078 24.6977 12.6707C24.6977 12.1325 24.2336 11.696 23.6613 11.696H22.9696Z" fill="#242760" fill-opacity="0.81"/>
</svg>
