<svg width="40" height="32" viewBox="0 0 40 32" fill="none" xmlns="http://www.w3.org/2000/svg">
<g clip-path="url(#clip0_24_872)">
<path d="M11.8226 16.4781C15.5946 16.4781 18.6476 13.4448 18.6476 9.6969C18.6476 5.94905 15.5946 2.91565 11.8226 2.91565C8.05053 2.91565 4.99756 5.94905 4.99756 9.6969C4.99756 13.4448 8.05053 16.4781 11.8226 16.4781ZM16.5026 18.4156H15.9968C14.7293 19.0211 13.3216 19.3844 11.8226 19.3844C10.3235 19.3844 8.92193 19.0211 7.64834 18.4156H7.14256C3.26693 18.4156 0.122559 21.5399 0.122559 25.3906V27.1344C0.122559 28.7389 1.43271 30.0406 3.04756 30.0406H20.5976C22.2124 30.0406 23.5226 28.7389 23.5226 27.1344V25.3906C23.5226 21.5399 20.3782 18.4156 16.5026 18.4156ZM29.3726 16.4781C32.6022 16.4781 35.2226 13.8746 35.2226 10.6656C35.2226 7.45667 32.6022 4.85315 29.3726 4.85315C26.1429 4.85315 23.5226 7.45667 23.5226 10.6656C23.5226 13.8746 26.1429 16.4781 29.3726 16.4781ZM32.2976 18.4156H32.066C31.219 18.7063 30.3232 18.9 29.3726 18.9C28.4219 18.9 27.5262 18.7063 26.6791 18.4156H26.4476C25.2044 18.4156 24.0588 18.7729 23.0533 19.3481C24.5402 20.9405 25.4726 23.0535 25.4726 25.3906V27.7157C25.4726 27.8489 25.4421 27.976 25.436 28.1031H36.1976C37.8124 28.1031 39.1226 26.8014 39.1226 25.1969C39.1226 21.449 36.0696 18.4156 32.2976 18.4156Z" fill="#FFCF26"/>
</g>
<defs>
<clipPath id="clip0_24_872">
<rect width="39" height="31" fill="white" transform="translate(0.122559 0.978149)"/>
</clipPath>
</defs>
</svg>
