<svg width="40" height="40" viewBox="0 0 40 40" fill="none" xmlns="http://www.w3.org/2000/svg">
<path d="M18.0354 5.09847C18.1484 5.00713 18.2804 4.94221 18.4218 4.90847C18.5632 4.87473 18.7103 4.87302 18.8524 4.90347L32.5024 7.82652C32.7201 7.87376 32.9151 7.99414 33.0549 8.16764C33.1947 8.34113 33.2709 8.55727 33.2707 8.78007V32.1801C33.2708 32.4031 33.1943 32.6195 33.0542 32.793C32.914 32.9666 32.7186 33.0868 32.5005 33.1336L18.8505 36.0586C18.7087 36.0888 18.562 36.0869 18.4211 36.0533C18.2801 36.0196 18.1485 35.9549 18.0357 35.864C17.9229 35.773 17.8317 35.658 17.7689 35.5274C17.7061 35.3968 17.6733 35.2539 17.6727 35.109V5.85897C17.6727 5.71348 17.7053 5.56985 17.768 5.43859C17.8308 5.30734 17.9221 5.19179 18.0354 5.10042M24.5016 20.482C24.5016 20.0941 24.3475 19.7222 24.0732 19.4479C23.7989 19.1736 23.4269 19.0195 23.0391 19.0195C22.6512 19.0195 22.2792 19.1736 22.0049 19.4479C21.7306 19.7222 21.5766 20.0941 21.5766 20.482C21.5766 20.8699 21.7306 21.2419 22.0049 21.5162C22.2792 21.7904 22.6512 21.9445 23.0391 21.9445C23.4269 21.9445 23.7989 21.7904 24.0732 21.5162C24.3475 21.2419 24.5016 20.8699 24.5016 20.482ZM15.7266 6.83592H6.94766C6.68907 6.83592 6.44108 6.93865 6.25823 7.12149C6.07538 7.30434 5.97266 7.55234 5.97266 7.81092V33.1512C5.97266 33.4098 6.07538 33.6578 6.25823 33.8406C6.44108 34.0234 6.68907 34.1262 6.94766 34.1262H15.7266V6.83592Z" fill="#FFCF26"/>
</svg>
