<svg width="35" height="35" viewBox="0 0 35 35" fill="none" xmlns="http://www.w3.org/2000/svg">
<path d="M16.4062 27.7084C16.4062 27.4183 16.5215 27.1401 16.7266 26.935C16.9317 26.7298 17.2099 26.6146 17.5 26.6146H26.25C26.3467 26.6146 26.4394 26.5762 26.5078 26.5078C26.5762 26.4394 26.6146 26.3467 26.6146 26.25V8.75002C26.6146 8.65333 26.5762 8.56059 26.5078 8.49222C26.4394 8.42385 26.3467 8.38544 26.25 8.38544H17.5C17.2099 8.38544 16.9317 8.2702 16.7266 8.06509C16.5215 7.85997 16.4062 7.58177 16.4062 7.29169C16.4062 7.00161 16.5215 6.72341 16.7266 6.51829C16.9317 6.31317 17.2099 6.19794 17.5 6.19794H26.25C27.6587 6.19794 28.8021 7.34127 28.8021 8.75002V26.25C28.8021 26.9269 28.5332 27.576 28.0546 28.0546C27.576 28.5332 26.9269 28.8021 26.25 28.8021H17.5C17.2099 28.8021 16.9317 28.6869 16.7266 28.4818C16.5215 28.2766 16.4062 27.9984 16.4062 27.7084Z" fill="#FFCF26"/>
<path d="M22.6647 19.6702C22.6647 20.0569 22.5111 20.4279 22.2376 20.7014C21.9641 20.9749 21.5932 21.1285 21.2064 21.1285H14.1247C14.0907 21.6467 14.0489 22.1649 13.9993 22.6831L13.9556 23.1279C13.9393 23.2955 13.8828 23.4567 13.7909 23.5979C13.699 23.739 13.5744 23.8559 13.4277 23.9387C13.281 24.0214 13.1165 24.0675 12.9482 24.0731C12.7799 24.0787 12.6127 24.0436 12.4608 23.9708C9.79419 22.6944 7.38064 20.9458 5.33682 18.8098L5.29307 18.7645C5.10503 18.569 5 18.3082 5 18.0368C5 17.7655 5.10503 17.5047 5.29307 17.3091L5.33682 17.2639C7.38064 15.1279 9.79419 13.3793 12.4608 12.1029C12.6127 12.0301 12.7799 11.995 12.9482 12.0006C13.1165 12.0062 13.281 12.0523 13.4277 12.135C13.5744 12.2177 13.699 12.3346 13.7909 12.4758C13.8828 12.6169 13.9393 12.7782 13.9556 12.9458L13.9993 13.3906C14.0489 13.9078 14.0907 14.426 14.1247 14.9452H21.2064C21.5932 14.9452 21.9641 15.0988 22.2376 15.3723C22.5111 15.6458 22.6647 16.0167 22.6647 16.4035V19.6702Z" fill="#FFCF26"/>
</svg>
