<svg width="35" height="35" viewBox="0 0 35 35" fill="none" xmlns="http://www.w3.org/2000/svg">
<path d="M16.4062 27.7084C16.4062 27.4183 16.5215 27.1401 16.7266 26.935C16.9317 26.7298 17.2099 26.6146 17.5 26.6146H26.25C26.3467 26.6146 26.4394 26.5762 26.5078 26.5078C26.5762 26.4394 26.6146 26.3467 26.6146 26.25V8.75002C26.6146 8.65333 26.5762 8.56059 26.5078 8.49222C26.4394 8.42385 26.3467 8.38544 26.25 8.38544H17.5C17.2099 8.38544 16.9317 8.2702 16.7266 8.06509C16.5215 7.85997 16.4062 7.58177 16.4062 7.29169C16.4062 7.00161 16.5215 6.72341 16.7266 6.51829C16.9317 6.31317 17.2099 6.19794 17.5 6.19794H26.25C27.6587 6.19794 28.8021 7.34127 28.8021 8.75002V26.25C28.8021 26.9269 28.5332 27.576 28.0546 28.0546C27.576 28.5332 26.9269 28.8021 26.25 28.8021H17.5C17.2099 28.8021 16.9317 28.6869 16.7266 28.4818C16.5215 28.2766 16.4062 27.9984 16.4062 27.7084Z" fill="#FFCF26"/>
<path d="M5.1282 15.7275C5.13399 15.3408 5.29316 14.9722 5.57071 14.7028C5.84826 14.4334 6.22145 14.2853 6.60818 14.2911L13.6891 14.397C13.7308 13.8794 13.7804 13.3619 13.8377 12.8445L13.8881 12.4004C13.9069 12.233 13.9658 12.0727 14.0598 11.9329C14.1538 11.7931 14.2801 11.6781 14.428 11.5976C14.576 11.5171 14.7411 11.4734 14.9095 11.4703C15.0779 11.4673 15.2446 11.5049 15.3953 11.5799C18.0425 12.8961 20.4297 14.6805 22.4413 16.8469L22.4844 16.8928C22.6695 17.0912 22.7706 17.3535 22.7665 17.6248C22.7625 17.8961 22.6536 18.1553 22.4626 18.348L22.4182 18.3926C20.3427 20.4978 17.9032 22.2101 15.2179 23.4465C15.0649 23.517 14.8972 23.5496 14.729 23.5415C14.5608 23.5334 14.397 23.4848 14.2515 23.3999C14.1061 23.315 13.9832 23.1963 13.8935 23.0538C13.8037 22.9113 13.7496 22.7492 13.7358 22.5813L13.6987 22.1359C13.6569 21.618 13.6229 21.0993 13.5966 20.5797L6.51572 20.4738C6.12899 20.468 5.76039 20.3088 5.49102 20.0313C5.22165 19.7537 5.07357 19.3805 5.07935 18.9938L5.1282 15.7275Z" fill="#FFCF26"/>
</svg>
