<svg width="40" height="40" viewBox="0 0 40 40" fill="none" xmlns="http://www.w3.org/2000/svg">
<path d="M36.6851 31.4469H35.4663V22.9156C35.4663 22.2692 35.2095 21.6492 34.7524 21.1921C34.2953 20.735 33.6753 20.4781 33.0288 20.4781H26.9351V9.5094C26.9351 8.86293 26.6783 8.24295 26.2211 7.78583C25.764 7.32871 25.144 7.0719 24.4976 7.0719H14.7476C14.1011 7.0719 13.4811 7.32871 13.024 7.78583C12.5669 8.24295 12.3101 8.86293 12.3101 9.5094V14.3844H6.21631C5.56984 14.3844 4.94986 14.6412 4.49274 15.0983C4.03562 15.5554 3.77881 16.1754 3.77881 16.8219V31.4469H2.56006C2.23683 31.4469 1.92683 31.5753 1.69827 31.8039C1.46971 32.0324 1.34131 32.3424 1.34131 32.6656C1.34131 32.9889 1.46971 33.2989 1.69827 33.5274C1.92683 33.756 2.23683 33.8844 2.56006 33.8844H36.6851C37.0083 33.8844 37.3183 33.756 37.5468 33.5274C37.7754 33.2989 37.9038 32.9889 37.9038 32.6656C37.9038 32.3424 37.7754 32.0324 37.5468 31.8039C37.3183 31.5753 37.0083 31.4469 36.6851 31.4469ZM12.3101 31.4469H6.21631V16.8219H12.3101V31.4469ZM21.4507 21.6969C21.4507 22.0201 21.3223 22.3301 21.0937 22.5587C20.8652 22.7872 20.5552 22.9156 20.2319 22.9156C19.9087 22.9156 19.5987 22.7872 19.3701 22.5587C19.1416 22.3301 19.0132 22.0201 19.0132 21.6969V17.2942L18.7892 17.3688C18.6374 17.4194 18.4771 17.4396 18.3174 17.4283C18.1577 17.4169 18.0019 17.3743 17.8587 17.3027C17.7156 17.2311 17.5879 17.132 17.483 17.0111C17.3782 16.8902 17.2981 16.7498 17.2475 16.598C17.1969 16.4461 17.1767 16.2858 17.188 16.1261C17.1994 15.9665 17.2421 15.8106 17.3136 15.6674C17.3852 15.5243 17.4843 15.3966 17.6052 15.2917C17.7261 15.1869 17.8665 15.1069 18.0184 15.0562L19.8465 14.4469C20.0297 14.3858 20.2248 14.3691 20.4157 14.3982C20.6066 14.4274 20.7879 14.5015 20.9446 14.6144C21.1012 14.7273 21.2288 14.8758 21.3168 15.0478C21.4048 15.2197 21.4507 15.41 21.4507 15.6031V21.6969ZM33.0288 31.4469H26.9351V22.9156H33.0288V31.4469Z" fill="#FFCF26"/>
</svg>
