<svg width="35" height="36" viewBox="0 0 35 36" fill="none" xmlns="http://www.w3.org/2000/svg">
<path d="M31.5876 9.93512L17.5001 1.80054L3.4126 9.93512V26.2014L17.5001 34.336L31.5876 26.2014V9.93512ZM17.5001 23.9016C15.953 23.9016 14.4693 23.287 13.3753 22.193C12.2813 21.0991 11.6668 19.6153 11.6668 18.0682C11.6668 16.5211 12.2813 15.0374 13.3753 13.9435C14.4693 12.8495 15.953 12.2349 17.5001 12.2349C19.0472 12.2349 20.5309 12.8495 21.6249 13.9435C22.7188 15.0374 23.3334 16.5211 23.3334 18.0682C23.3334 19.6153 22.7188 21.0991 21.6249 22.193C20.5309 23.287 19.0472 23.9016 17.5001 23.9016Z" fill="#FFCF26"/>
</svg>
